<svg xmlns="http://www.w3.org/2000/svg" viewBox="0 0 16.52 8.17"><title>logo</title><path d="M3.3,5.28H2.71V2.1H3.3ZM5,3.92H3.25v-.5H5ZM5,2.1h.58V5.28H5Z" transform="translate(-2.57 -1.26)" fill="#fff"/><path d="M7.48,5.31a1.45,1.45,0,0,1-.71-.16,1.24,1.24,0,0,1-.47-.44,1.21,1.21,0,0,1-.16-.65A1.23,1.23,0,0,1,6.74,3a1.36,1.36,0,0,1,.65-.16A1.32,1.32,0,0,1,8,3a1.14,1.14,0,0,1,.43.44,1.28,1.28,0,0,1,.16.67v.16h-2V3.87H8.32L8.09,4A.67.67,0,0,0,8,3.62a.72.72,0,0,0-.24-.25.81.81,0,0,0-.37-.09A.77.77,0,0,0,7,3.37a.67.67,0,0,0-.25.25A.73.73,0,0,0,6.71,4v.09a.75.75,0,0,0,.09.39.7.7,0,0,0,.28.26.88.88,0,0,0,.42.09.93.93,0,0,0,.37-.06.86.86,0,0,0,.29-.21l.31.36a1.06,1.06,0,0,1-.41.29A1.48,1.48,0,0,1,7.48,5.31Z" transform="translate(-2.57 -1.26)" fill="#fff"/><path d="M9.17,5.28V1.91h.56V5.28Z" transform="translate(-2.57 -1.26)" fill="#fff"/><path d="M10.48,5.28V1.91H11V5.28Z" transform="translate(-2.57 -1.26)" fill="#fff"/><path d="M12.88,5.31a1.33,1.33,0,0,1-.65-.16,1.11,1.11,0,0,1-.47-.44,1.29,1.29,0,0,1,0-1.29A1.14,1.14,0,0,1,12.22,3a1.23,1.23,0,0,1,.65-.16,1.33,1.33,0,0,1,.67.16,1.14,1.14,0,0,1,.46.44,1.34,1.34,0,0,1,0,1.29,1.27,1.27,0,0,1-.47.45A1.44,1.44,0,0,1,12.88,5.31Zm0-.48a.69.69,0,0,0,.37-.1.65.65,0,0,0,.26-.26,1,1,0,0,0,.09-.41.81.81,0,0,0-.09-.4.65.65,0,0,0-.26-.26.67.67,0,0,0-.36-.09.68.68,0,0,0-.37.09.65.65,0,0,0-.26.26.82.82,0,0,0-.1.4.83.83,0,0,0,.1.41.73.73,0,0,0,.62.36Z" transform="translate(-2.57 -1.26)" fill="#fff"/><path d="M3.63,9.39,2.57,6.21h.62l.94,2.88H3.82l1-2.88h.54l1,2.88H6L7,6.21h.56l-1,3.18H5.85L5,6.8h.17L4.27,9.39Z" transform="translate(-2.57 -1.26)" fill="#fff"/><path d="M8.86,9.43a1.37,1.37,0,0,1-.65-.17,1.22,1.22,0,0,1-.46-.44,1.31,1.31,0,0,1,0-1.3,1.22,1.22,0,0,1,.46-.44,1.36,1.36,0,0,1,.65-.16,1.38,1.38,0,0,1,.67.16,1.14,1.14,0,0,1,.46.44,1.31,1.31,0,0,1,0,1.3,1.22,1.22,0,0,1-.46.44A1.39,1.39,0,0,1,8.86,9.43Zm0-.49a.85.85,0,0,0,.38-.09.72.72,0,0,0,.25-.27.85.85,0,0,0,0-.8.81.81,0,0,0-.25-.27.84.84,0,0,0-.37-.09.78.78,0,0,0-.37.09.75.75,0,0,0-.26.27.85.85,0,0,0,0,.8.68.68,0,0,0,.26.27.74.74,0,0,0,.36.09Z" transform="translate(-2.57 -1.26)" fill="#fff"/><path d="M10.71,9.39V7h.53v.67l-.06-.19a.74.74,0,0,1,.34-.38,1.25,1.25,0,0,1,.57-.13v.54H12a.68.68,0,0,0-.51.19.8.8,0,0,0-.2.57V9.4Z" transform="translate(-2.57 -1.26)" fill="#fff"/><path d="M12.59,9.39V6h.57V9.39Z" transform="translate(-2.57 -1.26)" fill="#fff"/><path d="M14.93,9.43a1.37,1.37,0,0,1-.63-.16,1.1,1.1,0,0,1-.44-.44,1.4,1.4,0,0,1,0-1.29,1.1,1.1,0,0,1,.44-.44A1.25,1.25,0,0,1,14.93,7a1,1,0,0,1,.54.13,1,1,0,0,1,.39.41,1.82,1.82,0,0,1,0,1.4.89.89,0,0,1-.38.41A1.17,1.17,0,0,1,14.93,9.43ZM15,8.94a.68.68,0,0,0,.62-.36.85.85,0,0,0,0-.8A.68.68,0,0,0,15,7.42a.78.78,0,0,0-.37.09.75.75,0,0,0-.26.27.85.85,0,0,0,0,.8.75.75,0,0,0,.26.27.78.78,0,0,0,.37.09Zm.74.45V8.17l-.05-.65V6h.58V9.38Z" transform="translate(-2.57 -1.26)" fill="#fff"/><path d="M16.84,1.26v1a1.06,1.06,0,0,0-.51.22l-.71-.69L15.39,2l.7.7a1.11,1.11,0,0,0-.22.51h-1v.33h1a1.06,1.06,0,0,0,.22.51l-.7.7.23.23.7-.7a1.11,1.11,0,0,0,.51.22v1h.33v-1a1.11,1.11,0,0,0,.51-.22l.7.7.23-.23L17.9,4a1,1,0,0,0,.21-.51h1V3.2h-1a1.09,1.09,0,0,0-.21-.51l.7-.7-.23-.23-.7.7a1.2,1.2,0,0,0-.51-.21v-1ZM17,2.56a.81.81,0,1,1-.81.81A.81.81,0,0,1,17,2.56Z" transform="translate(-2.57 -1.26)" fill="#fec044"/></svg>